<svg width="32" height="17" viewBox="0 0 32 17" fill="none" xmlns="http://www.w3.org/2000/svg">
<path d="M27.1818 7.64451C26.4952 7.64451 25.8473 7.81378 25.277 8.11362C25.2562 5.61725 23.2537 3.60012 20.7863 3.60012C20.1527 3.60012 19.5498 3.73338 19.0031 3.97342C17.8725 1.62107 15.4915 0 12.7365 0C8.8886 0 5.76945 3.16247 5.76945 7.06325C5.76945 7.35088 5.7868 7.63396 5.81966 7.9129C5.32202 7.70224 4.7762 7.58595 4.20344 7.58595C1.88198 7.58595 0 9.49403 0 11.8472C0 14.2006 1.88198 16.1082 4.20344 16.1082C4.30693 16.1082 4.4096 16.1045 4.51125 16.0969C4.54085 16.1041 4.57208 16.1082 4.60413 16.1082H26.7811C26.8597 16.1082 26.9328 16.0851 26.9946 16.0455C27.0567 16.0484 27.1192 16.0501 27.1818 16.0501C29.4714 16.0501 31.3277 14.1683 31.3277 11.8472C31.3277 9.5261 29.4714 7.64451 27.1818 7.64451V7.64451Z" fill="white"/>
<path d="M27.1818 7.64451C26.4952 7.64451 25.8473 7.81378 25.277 8.11362C25.2562 5.61725 23.2537 3.60012 20.7863 3.60012C20.1527 3.60012 19.5498 3.73338 19.0031 3.97342C17.8725 1.62107 15.4915 0 12.7365 0C8.8886 0 5.76945 3.16247 5.76945 7.06325C5.76945 7.35088 5.7868 7.63396 5.81966 7.9129C5.32202 7.70224 4.7762 7.58595 4.20344 7.58595C1.88198 7.58595 0 9.49403 0 11.8472C0 14.2006 1.88198 16.1082 4.20344 16.1082C4.30693 16.1082 4.4096 16.1045 4.51125 16.0969C4.54085 16.1041 4.57208 16.1082 4.60413 16.1082H5.23792C3.48922 15.7486 2.17265 14.1813 2.17265 12.3022C2.17265 10.1572 3.88787 8.41842 6.00398 8.41842C6.52591 8.41842 7.02356 8.52437 7.47711 8.71619C7.44711 8.46208 7.43119 8.20363 7.43119 7.94187C7.43119 4.38644 10.2744 1.50415 13.7816 1.50415C16.2924 1.50415 18.4626 2.98161 19.4932 5.12559C19.9913 4.90686 20.541 4.78519 21.1186 4.78519C23.3674 4.78519 25.1927 6.62374 25.2117 8.8989C25.7313 8.62597 26.3219 8.4716 26.9477 8.4716C29.0346 8.4716 30.7264 10.1864 30.7264 12.3022C30.7264 13.9903 29.649 15.4235 28.1534 15.9338C29.9744 15.4902 31.3277 13.8292 31.3277 11.8472C31.3277 9.5261 29.4714 7.64451 27.1818 7.64451V7.64451Z" fill="#E6E6E6"/>
<path d="M21.6878 6.98087C20.2768 6.22124 18.6364 6.28353 17.2374 6.9968C17.1227 5.94892 15.9231 5.15639 14.4898 5.20647C13.0054 5.2582 11.8321 6.19455 11.8699 7.29747C11.8713 7.34672 11.8754 7.39535 11.8819 7.44335L11.8762 7.48784L11.8864 7.78913C12.0852 6.95004 13.0526 6.29015 14.2379 6.24876C15.3064 6.21152 16.2319 6.68827 16.591 7.3852C15.8659 7.89218 15.237 8.58932 14.7859 9.45034C14.6831 9.64671 14.5924 9.84619 14.5134 10.0477C14.2765 9.7359 13.9754 9.47186 13.6157 9.27838C12.1583 8.4933 10.2943 9.16043 9.45188 10.768C8.60948 12.3757 9.10794 14.315 10.5654 15.0997C10.6303 15.1346 10.696 15.1669 10.7625 15.1961C10.7787 15.211 10.7968 15.2244 10.8168 15.2354L11.2149 15.4496C10.2457 14.6125 9.98014 13.097 10.6529 11.8134C11.4206 10.348 13.1197 9.74004 14.4481 10.4554C14.7757 10.6319 15.0503 10.8725 15.2664 11.1569C15.3383 10.9731 15.4207 10.7912 15.5146 10.6122C16.7873 8.18353 19.6038 7.176 21.8054 8.36149C23.3816 9.21009 24.215 10.9532 24.0948 12.7661L24.1993 11.8134C24.3316 9.82446 23.4171 7.91204 21.6878 6.98087Z" fill="#E6E6E6"/>
</svg>
