<svg width="1438" height="820" viewBox="0 0 1438 820" fill="none" xmlns="http://www.w3.org/2000/svg">
<path d="M340.144 820C358.898 817.514 378.488 816.101 398.961 816.101C419.433 816.101 439.023 817.514 457.777 820H340.144Z" fill="white" fill-opacity="0.1"/>
<path d="M1438 797.954C1408.41 802.961 1380.4 810.679 1353.44 820H1340.21C1371.18 808.693 1403.51 799.31 1438 793.568V797.954Z" fill="white" fill-opacity="0.1"/>
<path d="M557.07 820C508.752 803.295 457.05 791.721 398.961 791.721C340.869 791.721 289.163 803.295 240.846 820H227.618C279.634 801.014 335.441 787.45 398.961 787.45C462.48 787.45 518.287 801.014 570.303 820H557.07V820Z" fill="white" fill-opacity="0.1"/>
<path d="M1438 769.305C1381.42 778.878 1330.6 798.379 1281.9 820H1270.9C1322.86 796.587 1377.04 775.064 1438 764.921V769.305Z" fill="white" fill-opacity="0.1"/>
<path d="M628.621 820C559.742 789.421 486.621 763.072 398.961 763.072C311.3 763.072 238.177 789.421 169.297 820H158.303C230.235 787.589 306.414 758.801 398.961 758.801C491.505 758.801 567.68 787.591 639.616 820H628.621Z" fill="white" fill-opacity="0.1"/>
<path d="M1438 740.659C1362.97 753.352 1298.06 783.51 1234.8 812.91C1229.72 815.268 1224.63 817.634 1219.52 820H1208.77C1216.57 816.417 1224.32 812.817 1232.02 809.238C1296.02 779.491 1361.7 748.972 1438 736.275V740.659V740.659Z" fill="white" fill-opacity="0.1"/>
<path d="M691 820C685.885 817.636 680.795 815.27 675.721 812.913C592.693 774.328 506.838 734.425 398.961 734.425C291.086 734.425 205.234 774.326 122.205 812.911C117.132 815.268 112.039 817.634 106.921 820H96.1771C103.977 816.415 111.726 812.814 119.428 809.236C203.085 770.356 289.591 730.157 398.961 730.157C508.33 730.157 594.839 770.358 678.499 809.238C686.201 812.817 693.949 816.417 701.747 820H691V820Z" fill="white" fill-opacity="0.1"/>
<path d="M756.012 820C728.554 808.815 701.997 796.472 675.721 784.262C592.693 745.677 506.838 705.776 398.961 705.776C291.086 705.776 205.231 745.677 122.203 784.257C96.0736 796.401 69.4244 808.787 41.958 820H30.0046C60.6901 807.879 90.3816 794.085 119.422 780.587C203.085 741.709 289.591 701.506 398.961 701.506C508.33 701.506 594.839 741.709 678.499 780.587C707.708 794.159 737.269 807.894 768.012 820H756.012ZM1142.5 820C1173.25 807.894 1202.81 794.159 1232.02 780.587C1296.02 750.842 1361.7 720.323 1438 707.626V712.008C1362.96 724.703 1298.06 754.861 1234.8 784.262C1208.52 796.472 1181.96 808.815 1154.5 820H1142.5V820Z" fill="white" fill-opacity="0.1"/>
<path d="M841.11 820C781.588 804.813 728.096 779.952 675.721 755.613C592.693 717.028 506.838 677.126 398.961 677.126C291.086 677.126 205.231 717.028 122.203 755.613C82.9764 773.843 42.5708 792.618 0 807.151V802.488C41.4787 788.161 81.0182 769.786 119.425 751.94C203.085 713.058 289.591 672.855 398.961 672.855C508.33 672.855 594.839 713.058 678.499 751.94C735.591 778.47 794.021 805.624 860.027 820H841.11V820ZM1050.49 820C1116.5 805.624 1174.92 778.47 1232.02 751.94C1296.02 722.192 1361.7 691.672 1438 678.973V683.357C1362.96 696.054 1298.06 726.213 1234.8 755.613C1182.42 779.952 1128.93 804.813 1069.41 820H1050.49V820Z" fill="white" fill-opacity="0.1"/>
<path d="M955.26 806.049C845.89 806.049 759.381 765.844 675.721 726.966C592.693 688.381 506.838 648.483 398.961 648.483C291.086 648.483 205.231 688.379 122.205 726.964C82.9791 745.192 42.5735 763.969 0 778.5V773.836C41.4787 759.512 81.0182 741.139 119.428 723.287C203.085 684.412 289.594 644.212 398.961 644.212C508.33 644.212 594.839 684.416 678.499 723.291C761.527 761.876 847.382 801.778 955.26 801.778C1063.14 801.778 1148.99 761.876 1232.02 723.291C1296.02 693.549 1361.7 663.03 1438 650.333V654.714C1362.96 667.407 1298.06 697.566 1234.8 726.966C1151.14 765.844 1064.63 806.049 955.26 806.049V806.049Z" fill="white" fill-opacity="0.1"/>
<path d="M955.26 777.396C845.89 777.396 759.381 737.193 675.721 698.318C592.693 659.733 506.838 619.83 398.961 619.83C291.086 619.83 205.231 659.731 122.203 698.315C82.9764 716.543 42.5708 735.32 0 749.854V745.188C41.4787 730.866 81.0182 712.49 119.422 694.643C203.085 655.763 289.591 615.562 398.961 615.562C508.33 615.562 594.839 655.763 678.499 694.643C761.527 733.225 847.382 773.128 955.26 773.128C1063.14 773.128 1148.99 733.225 1232.02 694.643C1296.02 664.896 1361.7 634.377 1438 621.68V626.064C1362.96 638.759 1298.06 668.919 1234.8 698.318C1151.14 737.193 1064.63 777.396 955.26 777.396Z" fill="white" fill-opacity="0.1"/>
<path d="M955.26 748.752C845.89 748.752 759.381 708.546 675.721 669.671C592.693 631.084 506.838 591.186 398.961 591.186C291.086 591.186 205.234 631.084 122.205 669.667C82.9791 687.897 42.5735 706.676 0 721.205V716.543C41.4787 702.217 81.021 683.844 119.43 665.994C203.088 627.118 289.594 586.915 398.961 586.915C508.33 586.915 594.839 627.118 678.499 665.996C761.527 704.581 847.382 744.481 955.26 744.481C1063.14 744.481 1148.99 704.581 1232.02 665.996C1296.02 636.252 1361.7 605.732 1438 593.033V597.417C1362.96 610.11 1298.06 640.268 1234.8 669.671C1151.14 708.546 1064.63 748.752 955.26 748.752Z" fill="white" fill-opacity="0.1"/>
<path d="M955.26 720.103C845.89 720.103 759.381 679.9 675.721 641.022C592.693 602.437 506.838 562.537 398.961 562.537C291.086 562.537 205.231 602.435 122.203 641.022C82.9764 659.25 42.5708 678.025 0 692.558V687.895C41.4787 673.57 81.0182 655.195 119.422 637.347C203.085 598.47 289.591 558.266 398.961 558.266C508.33 558.266 594.839 598.47 678.499 637.347C761.527 675.93 847.382 715.832 955.26 715.832C1063.14 715.832 1148.99 675.93 1232.02 637.347C1296.02 607.603 1361.7 577.084 1438 564.384V568.768C1362.96 581.463 1298.06 611.624 1234.8 641.022C1151.14 679.9 1064.63 720.103 955.26 720.103Z" fill="white" fill-opacity="0.1"/>
<path d="M955.26 691.454C845.89 691.454 759.381 651.249 675.721 612.371C592.693 573.787 506.838 533.888 398.961 533.888C291.086 533.888 205.234 573.786 122.205 612.369C82.9791 630.601 42.5735 649.378 0 663.907V659.246C41.4787 644.919 81.021 626.546 119.43 608.696C203.088 569.817 289.594 529.618 398.961 529.618C508.33 529.618 594.839 569.821 678.499 608.698C761.527 647.285 847.382 687.184 955.26 687.184C1063.14 687.184 1148.99 647.285 1232.02 608.698C1296.02 578.954 1361.7 548.435 1438 535.736V540.12C1362.96 552.812 1298.06 582.971 1234.8 612.371C1151.14 651.249 1064.63 691.454 955.26 691.454Z" fill="white" fill-opacity="0.1"/>
<path d="M955.26 662.806C845.89 662.806 759.381 622.602 675.721 583.727C592.693 545.142 506.838 505.242 398.961 505.242C291.086 505.242 205.231 545.138 122.203 583.723C82.9764 601.953 42.5708 620.729 0 635.261V630.597C41.4787 616.273 81.0182 597.9 119.425 580.052C203.085 541.17 289.591 500.971 398.961 500.971C508.33 500.971 594.839 541.17 678.499 580.052C761.527 618.637 847.382 658.533 955.26 658.533C1063.14 658.533 1148.99 618.637 1232.02 580.052C1296.02 550.306 1361.7 519.788 1438 507.091V511.473C1362.96 524.168 1298.06 554.327 1234.8 583.727C1151.14 622.602 1064.63 662.806 955.26 662.806V662.806Z" fill="white" fill-opacity="0.1"/>
<path d="M955.26 634.159C845.89 634.159 759.381 593.955 675.721 555.078C592.693 516.491 506.838 476.593 398.961 476.593C291.086 476.593 205.231 516.491 122.203 555.078C82.9764 573.306 42.5708 592.083 0 606.614V601.95C41.4787 587.624 81.0182 569.249 119.425 551.401C203.085 512.526 289.591 472.324 398.961 472.324C508.33 472.324 594.839 512.526 678.499 551.405C761.527 589.986 847.382 629.888 955.26 629.888C1063.14 629.888 1148.99 589.986 1232.02 551.405C1296.02 521.659 1361.7 491.139 1438 478.442V482.824C1362.96 495.517 1298.06 525.678 1234.8 555.078C1151.14 593.955 1064.63 634.159 955.26 634.159V634.159Z" fill="white" fill-opacity="0.1"/>
<path d="M955.26 605.51C845.89 605.51 759.381 565.307 675.721 526.429C592.693 487.842 506.838 447.944 398.961 447.944C291.086 447.944 205.231 487.842 122.203 526.429C82.9764 544.657 42.5708 563.434 0 577.966V573.302C41.4787 558.977 81.0182 540.602 119.425 522.754C203.085 483.877 289.591 443.673 398.961 443.673C508.33 443.673 594.839 483.877 678.499 522.756C761.527 561.341 847.382 601.239 955.26 601.239C1063.14 601.239 1148.99 561.341 1232.02 522.756C1296.02 493.01 1361.7 462.491 1438 449.793V454.175C1362.96 466.87 1298.06 497.029 1234.8 526.429C1151.14 565.307 1064.63 605.51 955.26 605.51V605.51Z" fill="white" fill-opacity="0.1"/>
<path d="M955.26 576.862C845.89 576.862 759.381 536.66 675.721 497.783C592.693 459.194 506.838 419.296 398.961 419.296C291.086 419.296 205.231 459.194 122.203 497.781C82.9764 516.009 42.5708 534.785 0 549.317V544.655C41.4787 530.329 81.0182 511.953 119.428 494.108C203.085 455.228 289.591 415.027 398.961 415.027C508.33 415.027 594.839 455.228 678.499 494.108C761.527 532.693 847.382 572.591 955.26 572.591C1063.14 572.591 1148.99 532.693 1232.02 494.108C1296.02 464.361 1361.7 433.842 1438 421.145V425.527C1362.96 438.222 1298.06 468.38 1234.8 497.783C1151.14 536.66 1064.63 576.862 955.26 576.862Z" fill="white" fill-opacity="0.1"/>
<path d="M955.26 548.213C845.89 548.213 759.381 508.009 675.721 469.134C592.693 430.549 506.838 390.651 398.961 390.651C291.086 390.651 205.231 430.545 122.203 469.132C82.9764 487.36 42.5708 506.136 0 520.668V516.004C41.4787 501.68 81.0182 483.305 119.425 465.459C203.085 426.579 289.591 386.38 398.961 386.38C508.33 386.38 594.839 426.579 678.499 465.459C761.527 504.044 847.382 543.942 955.26 543.942C1063.14 543.942 1148.99 504.044 1232.02 465.459C1296.02 435.713 1361.7 405.195 1438 392.498V396.88C1362.96 409.575 1298.06 439.734 1234.8 469.134C1151.14 508.009 1064.63 548.213 955.26 548.213V548.213Z" fill="white" fill-opacity="0.1"/>
<path d="M955.26 519.566C845.89 519.566 759.381 479.365 675.721 440.485C592.693 401.898 506.838 362.002 398.961 362.002C291.086 362.002 205.231 401.898 122.203 440.485C82.9764 458.713 42.5708 477.49 0 492.021V487.358C41.4787 473.031 81.0182 454.658 119.425 436.81C203.085 397.933 289.591 357.731 398.961 357.731C508.33 357.731 594.839 397.933 678.499 436.812C761.527 475.399 847.382 515.295 955.26 515.295C1063.14 515.295 1148.99 475.399 1232.02 436.812C1296.02 407.068 1361.7 376.549 1438 363.849V368.233C1362.96 380.926 1298.06 411.085 1234.8 440.485C1151.14 479.365 1064.63 519.566 955.26 519.566V519.566Z" fill="white" fill-opacity="0.1"/>
<path d="M955.26 490.917C845.89 490.917 759.381 450.716 675.721 411.836C592.693 373.252 506.838 333.353 398.961 333.353C291.086 333.353 205.231 373.252 122.203 411.836C82.9764 430.064 42.5708 448.841 0 463.373V458.709C41.4787 444.384 81.0182 426.009 119.422 408.161C203.085 369.284 289.591 329.083 398.961 329.083C508.33 329.083 594.839 369.284 678.499 408.164C761.527 446.748 847.382 486.647 955.26 486.647C1063.14 486.647 1148.99 446.748 1232.02 408.164C1296.02 378.419 1361.7 347.9 1438 335.201V339.583C1362.96 352.278 1298.06 382.436 1234.8 411.836C1151.14 450.716 1064.63 490.917 955.26 490.917V490.917Z" fill="white" fill-opacity="0.1"/>
<path d="M955.26 462.269C845.89 462.269 759.381 422.067 675.721 383.188C592.693 344.601 506.838 304.705 398.961 304.705C291.086 304.705 205.231 344.601 122.203 383.188C82.9764 401.42 42.5708 420.194 0 434.726V430.062C41.4787 415.736 81.0182 397.363 119.425 379.515C203.085 340.635 289.591 300.434 398.961 300.434C508.33 300.434 594.839 340.635 678.499 379.515C761.527 418.102 847.382 457.998 955.26 457.998C1063.14 457.998 1148.99 418.102 1232.02 379.515C1296.02 349.771 1361.7 319.251 1438 306.552V310.936C1362.96 323.629 1298.06 353.787 1234.8 383.188C1151.14 422.067 1064.63 462.269 955.26 462.269V462.269Z" fill="white" fill-opacity="0.1"/>
<path d="M955.26 433.62C845.89 433.62 759.381 393.421 675.721 354.541C592.693 315.956 506.838 276.058 398.961 276.058C291.086 276.058 205.231 315.956 122.203 354.539C82.9764 372.767 42.5708 391.544 0 406.077V401.411C41.4787 387.087 81.0182 368.714 119.425 350.866C203.085 311.991 289.591 271.787 398.961 271.787C508.33 271.787 594.839 311.991 678.499 350.866C761.527 389.451 847.382 429.349 955.26 429.349C1063.14 429.349 1148.99 389.451 1232.02 350.866C1296.02 321.122 1361.7 290.605 1438 277.905V282.289C1362.96 294.982 1298.06 325.141 1234.8 354.541C1151.14 393.421 1064.63 433.62 955.26 433.62V433.62Z" fill="white" fill-opacity="0.1"/>
<path d="M955.26 404.973C845.89 404.973 759.381 364.772 675.721 325.892C592.693 287.308 506.838 247.409 398.961 247.409C291.086 247.409 205.231 287.307 122.203 325.89C82.9764 344.122 42.5708 362.897 0 377.428V372.765C41.4787 358.438 81.0182 340.065 119.425 322.217C203.085 283.338 289.591 243.139 398.961 243.139C508.33 243.139 594.839 283.338 678.499 322.219C761.527 360.806 847.382 400.705 955.26 400.705C1063.14 400.705 1148.99 360.806 1232.02 322.219C1296.02 292.473 1361.7 261.954 1438 249.257V253.641C1362.96 266.333 1298.06 296.492 1234.8 325.892C1151.14 364.772 1064.63 404.973 955.26 404.973V404.973Z" fill="white" fill-opacity="0.1"/>
<path d="M955.26 376.327C845.89 376.327 759.381 336.123 675.721 297.244C592.693 258.659 506.838 218.761 398.961 218.761C291.086 218.761 205.231 258.659 122.203 297.244C82.9764 315.474 42.5708 334.248 0 348.78V344.118C41.4787 329.792 81.0182 311.416 119.422 293.569C203.085 254.693 289.591 214.49 398.961 214.49C508.33 214.49 594.839 254.693 678.499 293.571C761.527 332.158 847.382 372.056 955.26 372.056C1063.14 372.056 1148.99 332.158 1232.02 293.571C1296.02 263.827 1361.7 233.307 1438 220.608V224.992C1362.96 237.685 1298.06 267.843 1234.8 297.244C1151.14 336.123 1064.63 376.327 955.26 376.327V376.327Z" fill="white" fill-opacity="0.1"/>
<path d="M955.26 347.676C845.89 347.676 759.381 307.477 675.721 268.595C592.693 230.014 506.838 190.112 398.961 190.112C291.086 190.112 205.234 230.01 122.208 268.595C82.9791 286.825 42.5735 305.599 0 320.131V315.469C41.4814 301.141 81.0237 282.768 119.43 264.92C203.088 226.045 289.594 185.841 398.961 185.841C508.33 185.841 594.839 226.045 678.499 264.922C761.527 303.509 847.382 343.407 955.26 343.407C1063.14 343.407 1148.99 303.509 1232.02 264.922C1296.02 235.178 1361.7 204.658 1438 191.959V196.343C1362.96 209.038 1298.06 239.199 1234.8 268.595C1151.14 307.477 1064.63 347.676 955.26 347.676V347.676Z" fill="white" fill-opacity="0.1"/>
<path d="M955.26 319.029C845.89 319.029 759.381 278.828 675.721 239.948C592.693 201.363 506.838 161.465 398.961 161.465C291.083 161.465 205.231 201.363 122.2 239.948C82.9737 258.178 42.5708 276.953 0 291.484V286.821C41.4787 272.496 81.0182 254.121 119.422 236.273C203.082 197.398 289.591 157.194 398.961 157.194C508.33 157.194 594.839 197.398 678.499 236.273C761.527 274.86 847.382 314.758 955.26 314.758C1063.14 314.758 1148.99 274.86 1232.02 236.273C1296.02 206.531 1361.7 176.012 1438 163.315V167.696C1362.96 180.389 1298.06 210.55 1234.8 239.948C1151.14 278.828 1064.63 319.029 955.26 319.029Z" fill="white" fill-opacity="0.1"/>
<path d="M955.26 290.378C845.89 290.378 759.381 250.179 675.721 211.302C592.693 172.717 506.838 132.816 398.961 132.816C291.086 132.816 205.231 172.717 122.203 211.297C82.9764 229.53 42.5708 248.304 0 262.836V258.174C41.4787 243.847 81.0182 225.474 119.425 207.624C203.085 168.749 289.591 128.546 398.961 128.546C508.33 128.546 594.839 168.749 678.499 207.624C761.527 246.211 847.382 286.11 955.26 286.11C1063.14 286.11 1148.99 246.211 1232.02 207.624C1296.02 177.882 1361.7 147.363 1438 134.666V139.048C1362.96 151.743 1298.06 181.901 1234.8 211.302C1151.14 250.179 1064.63 290.378 955.26 290.378V290.378Z" fill="white" fill-opacity="0.1"/>
<path d="M955.26 261.734C845.89 261.734 759.381 221.53 675.721 182.651C592.693 144.066 506.838 104.168 398.961 104.168C291.086 104.168 205.231 144.066 122.203 182.649C82.9764 200.881 42.5708 219.655 0 234.187V229.525C41.4787 215.201 81.0182 196.826 119.428 178.98C203.085 140.098 289.591 99.897 398.961 99.897C508.33 99.897 594.839 140.098 678.499 178.98C761.527 217.563 847.382 257.463 955.26 257.463C1063.14 257.463 1148.99 217.563 1232.02 178.98C1296.02 149.232 1361.7 118.714 1438 106.017V110.399C1362.96 123.092 1298.06 153.252 1234.8 182.651C1151.14 221.53 1064.63 261.734 955.26 261.734V261.734Z" fill="white" fill-opacity="0.1"/>
<path d="M955.26 233.085C845.89 233.085 759.381 192.881 675.721 154.004C592.693 115.419 506.838 75.519 398.961 75.519C291.086 75.519 205.231 115.419 122.203 154.004C82.9764 172.232 42.5708 191.007 0 205.54V200.879C41.4787 186.552 81.0182 168.177 119.425 150.327C203.085 111.452 289.591 71.2482 398.961 71.2482C508.33 71.2482 594.839 111.452 678.499 150.331C761.527 188.916 847.382 228.814 955.26 228.814C1063.14 228.814 1148.99 188.916 1232.02 150.331C1296.02 120.585 1361.7 90.0655 1438 77.3683V81.7501C1362.96 94.4452 1298.06 124.604 1234.8 154.004C1151.14 192.881 1064.63 233.085 955.26 233.085Z" fill="white" fill-opacity="0.1"/>
<path d="M955.26 204.436C845.89 204.436 759.381 164.233 675.721 125.353C592.693 86.7727 506.838 46.8703 398.961 46.8703C291.086 46.8703 205.231 86.7727 122.203 125.353C82.9764 143.583 42.5708 162.36 0 176.892V172.23C41.4787 157.903 81.0182 139.53 119.422 121.683C203.085 82.803 289.591 42.5995 398.961 42.5995C508.33 42.5995 594.839 82.803 678.499 121.683C761.527 160.267 847.382 200.165 955.26 200.165C1063.14 200.165 1148.99 160.267 1232.02 121.683C1296.02 91.9362 1361.7 61.4168 1438 48.7196V53.1015C1362.96 65.7987 1298.06 95.9571 1234.8 125.353C1151.14 164.233 1064.63 204.436 955.26 204.436V204.436Z" fill="white" fill-opacity="0.1"/>
<path d="M955.26 175.788C845.89 175.788 759.381 135.588 675.721 96.7088C592.693 58.1239 506.838 18.2258 398.961 18.2258C291.086 18.2258 205.231 58.1239 122.203 96.7066C82.9764 114.935 42.5708 133.709 0 148.241V143.579C41.4787 129.255 81.0182 110.882 119.425 93.0337C203.085 54.1542 289.591 13.955 398.961 13.955C508.33 13.955 594.839 54.1542 678.499 93.0337C761.527 131.619 847.382 171.517 955.26 171.517C1063.14 171.517 1148.99 131.619 1232.02 93.0337C1296.02 63.2874 1361.7 32.7701 1438 20.0729V24.4548C1362.96 37.1499 1298.06 67.3083 1234.8 96.7088C1151.14 135.588 1064.63 175.788 955.26 175.788Z" fill="white" fill-opacity="0.1"/>
<path d="M955.26 147.141C845.89 147.141 759.381 106.94 675.721 68.06C618.629 41.5274 560.199 14.3756 494.19 0H513.11C572.629 15.1871 626.124 40.0476 678.499 64.3871C761.527 102.972 847.382 142.87 955.26 142.87C1063.14 142.87 1148.99 102.972 1232.02 64.3871C1284.39 40.0476 1337.88 15.1871 1397.41 0H1416.32C1350.31 14.3756 1291.89 41.5274 1234.8 68.06C1151.14 106.94 1064.63 147.141 955.26 147.141ZM303.728 0C237.722 14.3756 179.295 41.5275 122.203 68.0557C82.9764 86.2879 42.5708 105.063 0 119.596V114.932C41.4787 100.608 81.0182 82.2328 119.428 64.3849C171.803 40.0455 225.295 15.1871 284.814 0H303.728V0Z" fill="white" fill-opacity="0.1"/>
<path d="M955.26 118.494C845.89 118.494 759.381 78.2929 675.721 39.4113C646.514 25.8385 616.954 12.1057 586.208 0H598.205C625.663 11.1853 652.223 23.528 678.499 35.7383C761.527 74.3232 847.382 114.221 955.26 114.221C1063.14 114.221 1148.99 74.3232 1232.02 35.7383C1258.29 23.528 1284.85 11.1853 1312.31 0H1324.31C1293.56 12.1057 1264 25.8385 1234.8 39.4113C1151.14 78.2929 1064.63 118.494 955.26 118.494ZM211.71 0C180.97 12.1035 151.409 25.8364 122.203 39.4113C82.9764 57.6392 42.5708 76.4159 0 90.9474V86.2858C41.4787 71.9593 81.0182 53.584 119.425 35.7362C145.701 23.5259 172.258 11.1853 199.716 0H211.71V0Z" fill="white" fill-opacity="0.1"/>
<path d="M955.26 89.8434C845.884 89.8434 759.373 49.642 675.71 10.7582C668.011 7.18141 660.268 3.58323 652.471 0H663.212C668.324 2.36391 673.414 4.72995 678.485 7.08745C761.519 45.6723 847.38 85.5726 955.26 85.5726C1063.14 85.5726 1148.99 45.6744 1232.02 7.08958C1237.09 4.73208 1242.18 2.36604 1247.3 0H1258.04C1250.24 3.58323 1242.5 7.18354 1234.8 10.7625C1151.14 49.6442 1064.63 89.8434 955.26 89.8434Z" fill="white" fill-opacity="0.1"/>
<path d="M0 57.637C41.4787 43.3105 81.0182 24.9353 119.425 7.08745C124.499 4.72995 129.589 2.36391 134.704 0H145.445C137.648 3.58323 129.902 7.18354 122.203 10.7625C82.9764 28.9904 42.5708 47.7671 0 62.3008V57.637H0Z" fill="white" fill-opacity="0.1"/>
<path d="M955.26 61.1989C862.713 61.1989 786.537 32.4114 714.604 0H725.596C794.473 30.5792 867.596 56.9281 955.26 56.9281C1042.92 56.9281 1116.04 30.5792 1184.92 0H1195.91C1123.98 32.4114 1047.8 61.1989 955.26 61.1989V61.1989Z" fill="white" fill-opacity="0.1"/>
<path d="M0 28.9883C24.7429 20.4423 48.7967 10.455 72.3303 0H83.3169C56.3271 12.1655 28.6538 23.8697 0 33.652V28.9883Z" fill="white" fill-opacity="0.1"/>
<path d="M955.26 32.5502C891.74 32.5502 835.933 18.986 783.912 0H797.145C845.465 16.7054 897.168 28.2793 955.26 28.2793C1013.35 28.2793 1065.05 16.7054 1113.37 0H1126.61C1074.59 18.9881 1018.78 32.5502 955.26 32.5502V32.5502Z" fill="white" fill-opacity="0.1"/>
<path d="M0 0.339531L0.983178 0H14.1349C9.44777 1.71688 4.73886 3.38464 0 5.00328V0.339531H0Z" fill="white" fill-opacity="0.1"/>
<path d="M955.26 3.90141C934.784 3.90141 915.186 2.48562 896.429 0H1014.09C995.333 2.48562 975.735 3.90141 955.26 3.90141Z" fill="white" fill-opacity="0.1"/>
</svg>
