<svg width="13" height="16" viewBox="0 0 13 16" fill="none" xmlns="http://www.w3.org/2000/svg">
<path d="M6.5 0C2.91353 0 0 3.048 0 6.8C0 10.552 2.91353 13.6 6.5 13.6H6.88235V16C10.5988 14.128 13 10.4 13 6.8C13 3.048 10.0865 0 6.5 0ZM7.26471 11.6H5.73529V10H7.26471V11.6ZM7.26471 8.8H5.73529C5.73529 6.2 8.02941 6.4 8.02941 4.8C8.02941 3.92 7.34118 3.2 6.5 3.2C5.65882 3.2 4.97059 3.92 4.97059 4.8H3.44118C3.44118 3.032 4.81 1.6 6.5 1.6C8.19 1.6 9.55882 3.032 9.55882 4.8C9.55882 6.8 7.26471 7 7.26471 8.8Z" fill="#AA0000" fill-opacity="0.4"/>
</svg>
