<svg width="1293" height="813" viewBox="0 0 1293 813" fill="none" xmlns="http://www.w3.org/2000/svg">
<path d="M1027.55 514.899C983.627 514.899 942.202 526.313 905.723 546.497C904.386 378.358 776.308 242.489 618.498 242.489C577.969 242.489 539.406 251.465 504.444 267.633C432.124 109.181 279.833 0 103.629 0C-142.485 0 -341.99 213.003 -341.99 475.75C-341.99 495.115 -340.885 514.199 -338.772 532.975C-370.603 518.798 -405.513 510.963 -442.15 510.963C-590.64 510.963 -711 639.473 -711 797.986C-711 956.499 -590.64 1085 -442.15 1085C-435.535 1085 -428.968 1084.74 -422.467 1084.23C-420.561 1084.72 -418.569 1085 -416.519 1085H1001.93C1006.95 1085 1011.62 1083.43 1015.58 1080.76C1019.55 1080.96 1023.54 1081.07 1027.55 1081.07C1173.99 1081.07 1292.72 954.326 1292.72 797.986C1292.72 641.637 1173.99 514.899 1027.55 514.899Z" fill="white"/>
<path d="M1027.55 514.899C983.627 514.899 942.202 526.313 905.723 546.497C904.386 378.358 776.308 242.489 618.498 242.489C577.969 242.489 539.406 251.465 504.444 267.633C432.124 109.181 279.833 0 103.629 0C-142.485 0 -341.99 213.003 -341.99 475.75C-341.99 495.115 -340.885 514.199 -338.772 532.975C-370.603 518.798 -405.513 510.963 -442.15 510.963C-590.64 510.963 -711 639.473 -711 797.986C-711 956.499 -590.64 1085 -442.15 1085C-435.535 1085 -428.968 1084.74 -422.467 1084.23C-420.561 1084.72 -418.569 1085 -416.519 1085H-375.978C-487.834 1060.77 -572.036 955.206 -572.036 828.625C-572.036 684.154 -462.327 567.03 -326.99 567.03C-293.608 567.03 -261.781 574.168 -232.767 587.083C-234.682 569.97 -235.704 552.572 -235.704 534.927C-235.704 295.448 -53.8521 101.309 170.464 101.309C331.065 101.309 469.877 200.825 535.791 345.232C567.652 330.503 602.806 322.313 639.746 322.313C783.588 322.313 900.321 446.147 901.538 599.404C934.785 581.01 972.549 570.605 1012.58 570.605C1146.06 570.605 1254.26 686.122 1254.26 828.625C1254.26 942.338 1185.36 1038.87 1089.7 1073.23C1206.17 1043.36 1292.72 931.474 1292.72 797.986C1292.72 641.637 1173.99 514.899 1027.55 514.899Z" fill="#E6E6E6"/>
<path d="M676.148 470.209C585.904 419.035 480.977 423.234 391.497 471.27C384.155 400.703 307.441 347.307 215.762 350.684C120.812 354.17 45.7812 417.232 48.1857 491.53C48.283 494.846 48.5493 498.125 48.9643 501.361L48.5979 504.356L49.242 524.641C61.957 468.134 123.832 423.674 199.65 420.887C267.991 418.375 327.181 450.486 350.155 497.437C303.774 531.584 263.56 578.544 234.706 636.542C228.117 649.771 222.329 663.205 217.268 676.783C202.114 655.767 182.856 637.982 159.847 624.951C66.6428 572.084 -52.5898 617.009 -106.47 725.298C-160.347 833.572 -128.459 964.206 -35.2519 1017.06C-31.1042 1019.42 -26.8936 1021.58 -22.6314 1023.55C-21.598 1024.56 -20.4473 1025.46 -19.1592 1026.2L6.2966 1040.63C-55.6956 984.25 -72.6757 882.167 -29.6444 795.709C19.4496 697.003 128.128 656.054 213.092 704.234C234.051 716.124 251.606 732.333 265.432 751.481C270.032 739.108 275.307 726.866 281.313 714.807C362.715 551.212 542.852 483.344 683.673 563.194C784.486 620.364 837.794 737.772 830.099 859.883L836.786 795.709C845.245 661.741 786.756 532.932 676.148 470.209Z" fill="#E6E6E6"/>
</svg>
