<svg width="364" height="419" viewBox="0 0 364 419" fill="none" xmlns="http://www.w3.org/2000/svg">
<path fill-rule="evenodd" clip-rule="evenodd" d="M69.4855 291.613C73.8478 284.266 103.268 243.491 104.162 235.804C105.007 228.527 102.634 213.355 105.547 207.8C111.993 205.88 110.83 210.783 110.669 215.718L110.974 255.968C111.613 272.863 113.682 289.615 114.386 306.306C117.753 304.922 130.191 287.176 133.706 282.835C136.217 279.734 138.542 277.976 140.791 282.782C139.168 287.358 126.517 301.973 122.646 307.035C115.784 316.006 115.216 314.293 116.03 321.148C119.314 348.796 124.199 385.933 130.476 411.653L160.187 411.62C163.538 395.913 165.671 379.695 168.512 363.607C169.929 355.576 174.985 321.018 177.455 316.521L181.118 316.682C184.658 322.184 195.123 396.81 198.428 411.644L228.088 411.695C233.658 389.269 237.333 361.906 240.398 338.357C242.758 320.223 245.288 318.777 239.168 311.32L220.76 287.812C218.829 285.517 217.038 284.287 218.925 280.949C223.108 278.527 224.391 282.143 226.741 285.165C229.843 289.152 241.71 305.167 244.112 306.338C245.496 288.474 247.199 270.645 247.73 252.624L247.908 210.001C248.822 206.467 253.681 205.761 254.149 212.293C254.689 219.836 252.521 233.727 255.661 239.478C258.901 245.413 262.835 251.538 266.365 257.256L289.081 291.591C295.722 290.286 302.873 283.259 308.833 280.539C307.455 270.708 299.046 248.23 295.778 238.037C287.272 211.513 277.052 182.196 265.393 157.714L246.275 121.326C240.371 121.926 230.801 125.146 224.768 126.656C218.059 128.334 211.907 129.987 205.408 132.469C192.736 137.309 185.382 144.979 182.869 160.266C181.282 169.926 182.597 228.794 182.479 247.649C182.446 252.966 182.107 254.986 177.111 253.414C173.369 245.561 179.054 174.483 175.163 157.445C169.104 130.919 142.458 128.741 113.486 121.234C109.111 125.172 96.8578 149.677 93.4183 157.17C80.9491 184.335 72.0268 209.729 62.8333 238.069C60.5211 245.196 50.4576 275.613 49.7659 280.555C56.1069 283.244 62.6639 290.052 69.4855 291.613Z" fill="#007BB4"/>
<path fill-rule="evenodd" clip-rule="evenodd" d="M69.4857 291.613C62.6641 290.052 56.1071 283.244 49.7661 280.555C50.4578 275.613 60.5213 245.196 62.8335 238.069C72.027 209.728 80.9494 184.334 93.4185 157.17C96.858 149.677 109.111 125.172 113.486 121.234C142.458 128.741 169.104 130.919 175.163 157.445C179.055 174.483 173.369 245.56 177.112 253.414C182.107 254.986 182.446 252.966 182.479 247.648C182.598 228.794 181.282 169.926 182.87 160.266C185.382 144.979 192.736 137.308 205.409 132.469C211.907 129.987 218.059 128.334 224.768 126.655C230.801 125.146 240.371 121.925 246.275 121.326L265.393 157.713C277.052 182.195 287.273 211.512 295.778 238.037C299.047 248.23 307.455 270.708 308.834 280.539C302.874 283.259 295.723 290.286 289.081 291.59L266.365 257.256C262.835 251.538 258.901 245.413 255.661 239.478C252.521 233.727 254.689 219.836 254.149 212.293C253.682 205.761 248.822 206.467 247.909 210.001L247.73 252.624C247.199 270.645 245.496 288.473 244.112 306.338C241.71 305.167 229.844 289.152 226.742 285.165C224.391 282.143 223.108 278.527 218.925 280.949C217.039 284.287 218.83 285.517 220.76 287.812L239.169 311.32C245.288 318.777 242.759 320.223 240.398 338.357C237.333 361.906 233.658 389.269 228.088 411.695L198.429 411.644C195.123 396.81 184.658 322.184 181.119 316.682L177.456 316.521C174.985 321.018 169.93 355.576 168.512 363.607C165.672 379.695 163.538 395.913 160.187 411.62L130.476 411.653C124.199 385.932 119.314 348.796 116.031 321.148C115.217 314.293 115.784 316.006 122.646 307.035C126.517 301.973 139.169 287.358 140.792 282.782C138.543 277.975 136.217 279.734 133.706 282.835C130.191 287.176 117.753 304.922 114.386 306.306C113.682 289.615 111.613 272.863 110.974 255.967L110.669 215.718C110.83 210.783 111.993 205.88 105.547 207.8C102.635 213.355 105.008 228.527 104.162 235.804C103.269 243.491 73.848 284.266 69.4857 291.613ZM178.562 148.329C176.934 142.174 171.351 135.951 167.557 133.173C156.641 125.177 133.563 101.74 130.025 90.538C146.88 85.2848 158.151 81.3315 178.853 81.2502C192.058 81.198 219.185 84.8931 228.129 90.8714C223.058 103.931 203.563 123.603 190.998 133.187C182.054 140.01 182.759 145.076 178.562 148.329ZM145.646 123.04C133.174 120.997 111.479 114.618 101.888 109.233C83.541 98.9334 86.0691 87.1749 99.6294 75.3411C118.852 58.5657 152.917 41.7663 179.707 42.1762C210.529 42.6478 243.607 61.0799 259.43 75.6507C272.898 88.0522 274.654 99.6385 256.212 109.583C248.152 113.929 223.449 121.839 212.987 122.949C214.57 118.889 227.69 106.211 234.079 93.4444C239.722 94.7988 249.763 103.55 253.298 100.797C257.105 95.9294 244.541 91.0423 240.836 89.2811C207.38 73.376 170.53 70.0542 134.909 82.217C130.76 83.6338 99.6791 94.7933 105.345 100.689C109.123 104.621 113.607 96.5837 123.543 93.8559L139.795 115.679C143.783 120.884 143.956 119.281 145.646 123.04ZM218.881 43.9416C222.916 27.7182 251.639 25.0045 257.831 45.4851C260.256 53.5088 257.735 57.6501 255.343 63.4615C249.988 61.2482 243.87 56.2348 237.795 52.9003C232.795 50.1555 222.75 46.8649 218.881 43.9416ZM103.371 63.3993C100.907 57.8757 98.3595 53.279 100.786 45.5473C102.496 40.0999 105.948 35.8596 110.49 33.4091C122.327 27.0221 137.337 33.5211 139.745 43.9416C135.351 47.177 126.236 49.9297 120.758 52.9207C115.163 55.9749 107.804 61.6394 103.371 63.3993ZM98.4884 67.4064C94.2184 73.8488 80.3786 80.9882 82.868 96.5012C84.459 106.415 97.0562 115.584 106.47 118.157C105.582 122.135 97.2084 135.779 94.5743 140.626C90.5456 148.038 86.7881 156.324 83.5032 163.906C68.6755 198.13 59.2176 228.351 47.9798 264.151C46.7106 268.194 45.3138 272.69 43.925 276.872C41.5981 283.876 43.3259 283.674 48.3124 286.744C52.2324 289.157 66.4168 298.741 69.9082 299.181C74.4462 296.585 84.0178 281.871 87.9838 275.751C90.7906 271.42 93.5602 267.225 96.1265 262.93C98.03 259.745 102.08 252.485 104.222 250.19C106.256 262.683 105.893 280.887 107.113 294.285C109.703 322.701 112.881 349.711 117.681 377.646C119.248 386.767 122.601 410.483 125.585 417.29C129.697 418.394 160.805 418.363 165.088 417.32C167.157 412.948 173.671 370.966 175.548 360.115C176.148 356.648 176.736 353.217 177.289 350.15L179.792 340.286C180.676 348.324 191.701 413.122 193.45 417.27C197.43 418.35 228.926 418.359 232.907 417.29C237.534 413.76 250.074 313.863 251.442 295.352C252.481 281.289 252.506 263.649 254.322 250.141C257.446 253.467 282.772 297.87 288.607 299.268C291.966 298.766 305.921 289.546 309.81 287.148C318.209 281.966 316.961 284.368 310.789 264.705C305.493 247.83 299.906 230.143 294.22 213.483C291.426 205.296 288.535 196.705 285.316 188.793C278.519 172.086 272.929 157.7 264.299 141.147C261.627 136.022 253.043 122.39 252.067 118.174C267.457 114.14 284.771 97.7258 270.958 79.2039C268.161 75.453 261.885 70.085 260.172 67.4064C263.485 60.0718 267.036 54.8293 264.021 44.209C256.599 18.0624 219.787 19.0382 212.787 41.869C201.487 40.2923 193.113 36.1303 179.692 36.0369C165.721 35.9394 157.559 40.134 145.839 41.8787C141.806 29.2894 123.941 18.5759 107.507 27.9186C101.708 31.2151 96.708 36.9012 94.6231 44.2416C91.6943 54.5533 94.8529 59.9262 98.4884 67.4064Z" fill="black"/>
<path fill-rule="evenodd" clip-rule="evenodd" d="M145.646 123.041C143.956 119.281 143.783 120.885 139.795 115.679L123.543 93.8562C113.608 96.584 109.123 104.621 105.345 100.69C99.6793 94.7936 130.761 83.6341 134.91 82.2173C170.53 70.0545 207.38 73.3763 240.836 89.2815C244.541 91.0427 257.105 95.9297 253.298 100.797C249.764 103.551 239.723 94.7991 234.079 93.4447C227.69 106.211 214.57 118.889 212.987 122.949C223.449 121.839 248.152 113.929 256.212 109.583C274.654 99.6388 272.898 88.0525 259.431 75.651C243.607 61.0802 210.529 42.6481 179.707 42.1765C152.917 41.7666 118.853 58.566 99.6296 75.3414C86.0694 87.1752 83.5413 98.9338 101.888 109.234C111.48 114.619 133.174 120.997 145.646 123.041Z" fill="#F3CC30"/>
<path fill-rule="evenodd" clip-rule="evenodd" d="M178.562 148.329C182.759 145.076 182.054 140.01 190.998 133.188C203.563 123.604 223.058 103.931 228.129 90.8716C219.184 84.8932 192.058 81.1982 178.853 81.2503C158.151 81.3317 146.88 85.2849 130.024 90.5382C133.563 101.74 156.64 125.177 167.557 133.173C171.351 135.951 176.934 142.174 178.562 148.329Z" fill="white"/>
<path fill-rule="evenodd" clip-rule="evenodd" d="M218.881 43.9418C222.75 46.8651 232.795 50.1557 237.795 52.9004C243.87 56.235 249.988 61.2483 255.343 63.4617C257.735 57.6503 260.256 53.509 257.831 45.4853C251.639 25.0047 222.916 27.7184 218.881 43.9418Z" fill="#007BB4"/>
<path fill-rule="evenodd" clip-rule="evenodd" d="M103.371 63.3991C107.804 61.6392 115.164 55.9747 120.758 52.9205C126.237 49.9295 135.351 47.1768 139.745 43.9414C137.337 33.5209 122.327 27.022 110.49 33.4089C105.948 35.8594 102.496 40.0997 100.786 45.5471C98.3598 53.2788 100.907 57.8755 103.371 63.3991Z" fill="#007BB4"/>
<path d="M193.781 15.025H164.083V13.4732H193.781L194.557 14.2491L193.781 15.025ZM194.557 14.2491V15.025H193.781L194.557 14.2491ZM194.557 2.82109V14.2491H193.005V2.82109L193.781 2.04517L194.557 2.82109ZM193.781 2.04517H194.557V2.82109L193.781 2.04517ZM164.083 2.04517H193.781V3.597H164.083L163.307 2.82109L164.083 2.04517ZM163.307 2.82109V2.04517H164.083L163.307 2.82109ZM163.307 14.2491V2.82109H164.859V14.2491L164.083 15.025L163.307 14.2491ZM164.083 15.025H163.307V14.2491L164.083 15.025Z" fill="#007BB4"/>
<path d="M246.01 150.163V0" stroke="#007BB4" stroke-width="0.7056" stroke-miterlimit="22.9256"/>
<path d="M110.608 150.163V0" stroke="#007BB4" stroke-width="0.7056" stroke-miterlimit="22.9256"/>
<path d="M242.035 9.3111H193.781V7.75927H242.035V9.3111ZM246.004 8.53519L241.982 10.5464V6.52393L246.004 8.53519Z" fill="#007BB4"/>
<path d="M110.614 8.53519L114.636 6.52393V10.5464L110.614 8.53519ZM164.083 9.3111H114.583V7.75927H164.083V9.3111Z" fill="#007BB4"/>
<path d="M166.686 11.6459V5.53514H168.665C169.414 5.53514 169.902 5.56505 170.13 5.62619C170.48 5.71856 170.773 5.91781 171.009 6.22506C171.245 6.5323 171.363 6.92906 171.363 7.41555C171.363 7.79119 171.295 8.10546 171.16 8.36146C171.023 8.61746 170.851 8.81804 170.642 8.96451C170.433 9.10966 170.219 9.20643 170.003 9.25328C169.709 9.31178 169.283 9.34147 168.726 9.34147H167.924V11.6459H166.686ZM167.924 6.56771V8.3089H168.596C169.081 8.3089 169.404 8.27613 169.568 8.21213C169.731 8.14813 169.859 8.0485 169.952 7.91061C170.044 7.77403 170.091 7.61612 170.091 7.43402C170.091 7.21079 170.026 7.02715 169.896 6.88222C169.765 6.73706 169.602 6.646 169.402 6.60905C169.255 6.582 168.961 6.56771 168.517 6.56771H167.924ZM172.379 11.6459V5.53514H176.902V6.56771H173.616V7.9249H176.672V8.95748H173.616V10.6131H177.021V11.6459H172.379ZM178.029 11.6459V5.53514H179.266V11.6459H178.029ZM181.817 11.6459V6.56771H180.007V5.53514H184.855V6.56771H183.054V11.6459H181.817ZM185.246 8.62758C185.246 8.00452 185.34 7.48108 185.526 7.05706C185.664 6.74563 185.855 6.46545 186.095 6.21781C186.336 5.97039 186.599 5.78696 186.885 5.666C187.266 5.50523 187.705 5.42407 188.203 5.42407C189.105 5.42407 189.825 5.70449 190.367 6.26333C190.907 6.82393 191.178 7.60182 191.178 8.59898C191.178 9.58757 190.909 10.3615 190.373 10.919C189.836 11.4781 189.118 11.7567 188.221 11.7567C187.312 11.7567 186.588 11.4794 186.051 10.9232C185.515 10.3685 185.246 9.60319 185.246 8.62758ZM186.518 8.58624C186.518 9.27902 186.679 9.80376 186.999 10.1623C187.319 10.5194 187.725 10.6987 188.218 10.6987C188.711 10.6987 189.115 10.5207 189.432 10.1667C189.748 9.81103 189.906 9.27901 189.906 8.56908C189.906 7.86794 189.752 7.3445 189.444 7.00031C189.137 6.65458 188.728 6.48238 188.218 6.48238C187.708 6.48238 187.297 6.65744 186.986 7.00581C186.674 7.35594 186.518 7.88224 186.518 8.58624Z" fill="black"/>
<path d="M363.215 228.293H319.996V226.741H363.215L363.991 227.517L363.215 228.293ZM363.991 227.517V228.293H363.215L363.991 227.517ZM363.991 215.171V227.517H362.439V215.171L363.215 214.395L363.991 215.171ZM363.215 214.395H363.991V215.171L363.215 214.395ZM319.996 214.395H363.215V215.947H319.996L319.22 215.171L319.996 214.395ZM319.22 215.171V214.395H319.996L319.22 215.171ZM319.22 227.517V215.171H320.772V227.517L319.996 228.293L319.22 227.517ZM319.996 228.293H319.22V227.517L319.996 228.293Z" fill="#007BB4"/>
<path d="M239.132 418.11H350.14" stroke="#007BB4" stroke-width="0.7056" stroke-miterlimit="22.9256"/>
<path d="M239.132 24.6992H350.14" stroke="#007BB4" stroke-width="0.7056" stroke-miterlimit="22.9256"/>
<path d="M340.829 409.965V227.517H342.381V409.965H340.829ZM337.24 401.819H345.97L341.605 418.11L337.24 401.819Z" fill="#007BB4"/>
<path d="M337.24 40.9903L341.605 24.6992L345.97 40.9903H337.24ZM340.829 215.171V32.8448H342.381V215.171H340.829Z" fill="#007BB4"/>
<path d="M329.521 224.677H328.067L327.491 223.16H324.818L324.264 224.677H322.836L325.425 218.011H326.851L329.521 224.677ZM327.054 222.033L326.127 219.566L325.227 222.033H327.054ZM330.277 224.677V218.067H331.627V223.551H334.969V224.677H330.277ZM336.735 224.677V219.138H334.761V218.011H340.049V219.138H338.085V224.677H336.735ZM340.923 218.011H342.273V221.624C342.273 222.198 342.29 222.569 342.322 222.738C342.38 223.011 342.515 223.231 342.729 223.396C342.945 223.562 343.238 223.644 343.61 223.644C343.988 223.644 344.273 223.566 344.465 223.41C344.658 223.253 344.773 223.062 344.811 222.834C344.85 222.606 344.871 222.229 344.871 221.701V218.011H346.22V221.516C346.22 222.317 346.185 222.884 346.112 223.214C346.039 223.544 345.906 223.824 345.71 224.052C345.516 224.28 345.255 224.46 344.929 224.595C344.602 224.73 344.177 224.798 343.651 224.798C343.016 224.798 342.535 224.725 342.208 224.578C341.88 224.431 341.621 224.24 341.43 224.004C341.239 223.768 341.115 223.523 341.055 223.264C340.966 222.882 340.923 222.317 340.923 221.571V218.011ZM347.646 224.677V218.011H350.481C351.194 218.011 351.712 218.072 352.035 218.191C352.359 218.311 352.616 218.523 352.81 218.829C353.004 219.136 353.102 219.485 353.102 219.879C353.102 220.381 352.956 220.793 352.663 221.119C352.37 221.445 351.932 221.65 351.349 221.735C351.639 221.904 351.878 222.091 352.066 222.294C352.255 222.497 352.509 222.859 352.829 223.377L353.642 224.677H352.033L351.068 223.222C350.722 222.705 350.484 222.379 350.356 222.244C350.228 222.111 350.093 222.018 349.951 221.968C349.806 221.918 349.58 221.893 349.269 221.893H348.996V224.677H347.646ZM348.996 220.832H349.993C350.638 220.832 351.04 220.804 351.201 220.75C351.361 220.696 351.488 220.601 351.578 220.467C351.67 220.334 351.715 220.167 351.715 219.966C351.715 219.741 351.655 219.561 351.535 219.422C351.415 219.284 351.246 219.197 351.029 219.161C350.919 219.145 350.592 219.138 350.047 219.138H348.996V220.832ZM360.375 224.677H358.921L358.345 223.16H355.672L355.118 224.677H353.69L356.279 218.011H357.705L360.375 224.677ZM357.908 222.033L356.981 219.566L356.081 222.033H357.908Z" fill="black"/>
<path d="M54.9933 167.911L40.0844 205.188L38.6435 204.611L53.5523 167.334L54.5609 166.902L54.9933 167.911ZM54.5609 166.902L55.2814 167.19L54.9933 167.911L54.5609 166.902ZM42.9851 162.272L54.5609 166.902L53.9847 168.343L42.4089 163.713L41.9765 162.705L42.9851 162.272ZM41.9765 162.705L42.2646 161.984L42.9851 162.272L41.9765 162.705ZM27.0676 199.982L41.9765 162.705L43.4175 163.281L28.5086 200.558L27.5 200.99L27.0676 199.982ZM27.5 200.99L26.7795 200.702L27.0676 199.982L27.5 200.99ZM39.0758 205.62L27.5 200.99L28.0762 199.549L39.6521 204.179L40.0844 205.188L39.0758 205.62ZM40.0844 205.188L39.7963 205.908L39.0758 205.62L40.0844 205.188Z" fill="#007BB4"/>
<path d="M105.562 118.064L64.7202 101.73" stroke="#007BB4" stroke-width="0.7056" stroke-miterlimit="22.9256"/>
<path d="M41.8413 277.386L1 261.052" stroke="#007BB4" stroke-width="0.7056" stroke-miterlimit="22.9256"/>
<path d="M71.8888 108.879L49.2051 165.595L47.7642 165.019L70.4478 108.303L71.8888 108.879ZM72.6425 104.905L73.0161 109.387L69.2813 107.893L72.6425 104.905Z" fill="#007BB4"/>
<path d="M8.92688 264.215L8.55322 259.734L12.2881 261.227L8.92688 264.215ZM34.2965 202.873L11.1216 260.818L9.68059 260.242L32.8555 202.297L34.2965 202.873Z" fill="#007BB4"/>
<path d="M37.7813 201.208L31.592 198.732L32.3427 196.855L37.0078 197.434L33.225 194.649L33.9774 192.768L40.1669 195.243L39.7037 196.401L34.8292 194.457L39.214 197.626L38.7321 198.831L33.3737 198.096L38.2447 200.05L37.7813 201.208ZM42.8982 188.414L42.3583 189.764L40.7357 189.735L39.7427 192.217L40.9459 193.295L40.4159 194.621L35.1877 189.742L35.7171 188.418L42.8982 188.414ZM39.5269 189.723L36.8921 189.667L38.8486 191.418L39.5269 189.723ZM43.165 187.747L36.9755 185.272L37.4607 184.058L42.6273 183.17L38.4796 181.511L38.9428 180.353L45.1323 182.828L44.6315 184.08L39.5595 184.961L43.6282 186.589L43.165 187.747ZM44.5393 177.716L43.4936 177.298L44.5688 174.609L47.0382 175.597C47.1891 175.96 47.2608 176.428 47.2564 177.003C47.2513 177.576 47.1466 178.117 46.9427 178.627C46.6839 179.274 46.3232 179.783 45.8585 180.156C45.3942 180.527 44.8591 180.732 44.2567 180.772C43.6541 180.812 43.0539 180.712 42.459 180.474C41.8135 180.216 41.2943 179.851 40.8993 179.381C40.506 178.909 40.2778 178.36 40.2179 177.733C40.1709 177.252 40.2657 176.719 40.5019 176.128C40.8091 175.36 41.2107 174.824 41.7064 174.521C42.2026 174.22 42.7592 174.12 43.3794 174.224L43.1146 175.562C42.7762 175.527 42.47 175.595 42.1966 175.765C41.925 175.934 41.7174 176.198 41.5734 176.558C41.3556 177.103 41.355 177.606 41.5738 178.066C41.7924 178.526 42.2422 178.893 42.9237 179.166C43.6598 179.46 44.277 179.518 44.7744 179.34C45.2726 179.159 45.6276 178.807 45.8391 178.278C45.9434 178.017 45.9964 177.734 45.999 177.431C46.0021 177.126 45.9667 176.852 45.8952 176.604L45.1098 176.29L44.5393 177.716ZM50.581 169.205L50.0411 170.555L48.4183 170.525L47.4255 173.008L48.6287 174.086L48.0987 175.411L42.8703 170.533L43.3999 169.209L50.581 169.205ZM47.2097 170.513L44.575 170.457L46.5315 172.209L47.2097 170.513Z" fill="black"/>
</svg>
