<svg width="45" height="45" viewBox="0 0 45 45" fill="none" xmlns="http://www.w3.org/2000/svg">
<path d="M0 22.5C0 34.9264 10.0736 45 22.5 45C34.9264 45 45 34.9264 45 22.5C45 10.0736 34.9264 0 22.5 0C10.0736 0 0 10.0736 0 22.5Z" fill="#007BB4"/>
<path fill-rule="evenodd" clip-rule="evenodd" d="M29.4747 23.7963C30.1751 23.0804 30.1751 21.9196 29.4747 21.2037L18.0615 9.53695C17.3612 8.82102 16.2256 8.82102 15.5253 9.53695C14.8249 10.2529 14.8249 11.4136 15.5253 12.1296L25.6703 22.5L15.5253 32.8704C14.8249 33.5864 14.8249 34.7471 15.5253 35.4631C16.2256 36.179 17.3612 36.179 18.0615 35.4631L29.4747 23.7963Z" fill="#F5FCFF"/>
</svg>
