<svg width="22" height="22" viewBox="0 0 22 22" fill="none" xmlns="http://www.w3.org/2000/svg">
<path d="M11.0642 8.47789H13.1659V5.45144H16.3184V3.4338H13.1659V0.407349H11.0642V3.4338H7.91163V5.45144H11.0642V8.47789ZM6.86078 17.5573C5.70484 17.5573 4.76958 18.4652 4.76958 19.5749C4.76958 20.6846 5.70484 21.5925 6.86078 21.5925C8.01672 21.5925 8.96248 20.6846 8.96248 19.5749C8.96248 18.4652 8.01672 17.5573 6.86078 17.5573ZM17.3693 17.5573C16.2134 17.5573 15.2781 18.4652 15.2781 19.5749C15.2781 20.6846 16.2134 21.5925 17.3693 21.5925C18.5252 21.5925 19.471 20.6846 19.471 19.5749C19.471 18.4652 18.5252 17.5573 17.3693 17.5573ZM7.03942 14.2786L7.07095 14.1575L8.01672 12.5132H15.8456C16.6337 12.5132 17.3273 12.0996 17.6846 11.4741L21.7408 4.40227L19.9124 3.4338H19.9019L18.7459 5.45144L15.8456 10.4955H8.46858L8.33197 10.2232L5.97806 5.45144L4.97975 3.4338L3.99195 1.41617H0.555664V3.4338H2.65737L6.44044 11.0907L5.02179 13.5623C4.85365 13.8448 4.75907 14.1777 4.75907 14.5308C4.75907 15.6405 5.70484 16.5484 6.86078 16.5484H19.471V14.5308H7.30214C7.16553 14.5308 7.03942 14.4198 7.03942 14.2786Z" fill="#007BB4"/>
</svg>
