<svg width="151" height="65" viewBox="0 0 151 65" fill="none" xmlns="http://www.w3.org/2000/svg">
<path d="M70.6901 16.5544H66.477V26.8287H70.6179C73.745 26.8287 75.9748 24.6856 75.9748 21.6912C75.9748 18.6824 73.7596 16.5544 70.6901 16.5544ZM70.7337 25.0965H68.417V18.2863H70.6611C72.5578 18.2863 73.9913 19.6952 73.9913 21.7061C73.9913 23.7024 72.6014 25.0965 70.7337 25.0965Z" fill="white"/>
<path d="M81.9252 16.4956C78.8703 16.4956 76.525 18.7264 76.525 21.6911C76.525 24.6416 78.8703 26.9166 81.9252 26.9166C84.9801 26.9166 87.3258 24.6416 87.3258 21.6911C87.3258 18.7413 84.9801 16.4956 81.9252 16.4956ZM81.9542 18.2568C83.8076 18.2568 85.3422 19.7538 85.3422 21.6911C85.3422 23.6287 83.8076 25.1551 81.9542 25.1551C80.0864 25.1551 78.5086 23.6287 78.5086 21.6911C78.5086 19.7538 80.0721 18.2568 81.9542 18.2568Z" fill="white"/>
<path d="M97.591 26.8287L95.3612 23.4234C96.6645 22.8657 97.3737 21.7061 97.3737 20.0916C97.3737 17.8311 95.8824 16.5544 93.2618 16.5544H89.0341V26.8287H90.9744V23.805H93.2618C93.3923 23.805 93.5081 23.805 93.6239 23.7901L95.3758 26.8287H97.591ZM90.9744 18.2714H93.2618C94.7099 18.2714 95.5206 18.8882 95.5206 20.1504C95.5206 21.4419 94.7099 22.0728 93.2618 22.0728H90.9744V18.2714Z" fill="white"/>
<path d="M111.114 16.5544C109.521 16.569 108.305 17.3763 107.668 18.6972C107.176 17.3763 106.061 16.5544 104.627 16.5544C103.238 16.569 102.123 17.1709 101.442 18.1982V16.5544H99.502V26.8287H101.442V21.2951C101.442 19.7101 102.455 18.4769 103.903 18.4476C105.149 18.4476 105.974 19.4017 105.974 20.7961V26.8287H107.943V21.2951C107.943 19.7101 108.971 18.4769 110.404 18.4476C111.649 18.4476 112.489 19.4017 112.489 20.7961V26.8287H114.458V20.3116C114.458 18.066 113.054 16.5544 111.114 16.5544Z" fill="white"/>
<path d="M121.856 18.2714V16.5544H116.195V18.2714H118.063V25.1113H116.195V26.8287H121.856V25.1113H120.003V18.2714H121.856Z" fill="white"/>
<path d="M128.039 16.5544H123.825V26.8287H127.966C131.094 26.8287 133.323 24.6856 133.323 21.6912C133.323 18.6824 131.108 16.5544 128.039 16.5544ZM128.082 25.0965H125.766V18.2863H128.01C129.907 18.2863 131.34 19.6952 131.34 21.7061C131.34 23.7024 129.95 25.0965 128.082 25.0965Z" fill="white"/>
<path d="M139.274 16.4956C136.219 16.4956 133.873 18.7264 133.873 21.6911C133.873 24.6416 136.219 26.9166 139.274 26.9166C142.329 26.9166 144.674 24.6416 144.674 21.6911C144.674 18.7413 142.329 16.4956 139.274 16.4956ZM139.303 18.2568C141.156 18.2568 142.691 19.7538 142.691 21.6911C142.691 23.6287 141.156 25.1551 139.303 25.1551C137.435 25.1551 135.857 23.6287 135.857 21.6911C135.857 19.7538 137.421 18.2568 139.303 18.2568Z" fill="white"/>
<path d="M80.4588 48.8468C77.7143 48.8468 75.5744 47.3849 74.5043 44.9328L91.8097 40.3111C91.5304 33.0486 86.7389 28.5683 79.4821 28.6156C71.6204 28.6626 66.6426 33.9446 66.6426 41.5843C66.6426 49.3184 71.9924 54.506 79.9472 54.506C84.5062 54.506 88.3208 52.7609 91.2047 49.3184L87.1112 45.5457C85.2039 47.715 82.8779 48.8468 80.4588 48.8468ZM79.8541 33.9916C82.2733 33.9916 83.9944 35.1235 84.7852 37.5759L73.8066 40.5939C74.0392 36.3026 76.3185 33.9916 79.8541 33.9916Z" fill="url(#paint0_linear)"/>
<path d="M129.35 28.5684C125.117 28.6157 121.954 30.5022 120.326 34.4163C119.116 30.7376 116.093 28.5684 111.86 28.5684C108.091 28.6157 105.161 30.1247 103.393 33.2371V28.8515H96.2289V54.223H103.393V41.6788C103.393 38.0005 105.486 35.2653 108.975 35.2179C111.906 35.2179 113.767 37.1515 113.767 40.4055V54.223H120.884V41.6788C120.884 38.0005 122.977 35.2653 126.42 35.2179C129.397 35.2179 131.258 37.1515 131.258 40.4055V54.223H138.375V38.2833C138.375 32.3413 134.886 28.5684 129.35 28.5684Z" fill="url(#paint1_linear)"/>
<path d="M47.1557 0.870361H26.4443V54.5512H47.8634C58.3478 54.5512 64.8443 48.8762 64.8443 39.6739C64.8443 32.6187 61.2424 27.404 55.4533 26.1005C60.2775 24.6432 63.2365 20.1187 63.2365 14.2907C63.2365 6.00841 57.0614 0.870361 47.1557 0.870361ZM46.6414 22.496H36.6071V10.763H46.6414C50.4363 10.763 52.8162 12.8335 52.8162 16.5143C52.8162 20.2721 50.4363 22.496 46.6414 22.496ZM46.6414 44.6582H36.6071V31.8518H46.6414C51.4656 31.8518 54.3599 34.229 54.3599 38.14C54.3599 42.2813 51.4656 44.6582 46.6414 44.6582Z" fill="url(#paint2_linear)"/>
<path d="M137.967 6.98775L140.764 10.8422C140.81 10.9053 140.884 10.9419 140.961 10.9394L145.679 10.7891C145.874 10.7828 145.992 11.0066 145.878 11.1676L143.126 15.0548C143.081 15.1189 143.069 15.2013 143.096 15.2754L144.694 19.7772C144.761 19.9637 144.587 20.1462 144.401 20.0862L139.904 18.6343C139.83 18.6103 139.749 18.6248 139.688 18.6731L135.958 21.6056C135.804 21.7271 135.579 21.6163 135.578 21.4181L135.55 16.6336C135.55 16.555 135.511 16.4814 135.447 16.4369L131.543 13.7478C131.381 13.6364 131.416 13.3852 131.601 13.323L136.082 11.8178C136.155 11.7928 136.212 11.7329 136.234 11.6574L137.551 7.06256C137.605 6.87224 137.851 6.82805 137.967 6.98775Z" fill="#F3CC30"/>
<path d="M137.93 8.00098L136.727 11.9299C136.665 12.136 136.502 12.295 136.297 12.3519L132.382 13.4363L136.621 12.879C136.89 12.8436 137.106 12.6353 137.154 12.3645L137.93 8.00098Z" fill="#F7DB5E"/>
<path d="M135.575 20.8677L135.578 21.4182C135.579 21.6164 135.804 21.7272 135.958 21.6056L139.688 18.6732C139.749 18.6249 139.83 18.6104 139.904 18.6344L144.401 20.0862C144.587 20.1462 144.761 19.9638 144.694 19.7772L143.096 15.2755C143.069 15.2013 143.081 15.1189 143.126 15.0552L145.878 11.1676C145.992 11.0067 145.874 10.7829 145.679 10.7892L144.098 10.8394C142.401 15.8206 139.004 18.8935 135.575 20.8677Z" fill="#EDBD31"/>
<path d="M131.615 6.43735L132.281 7.3555C132.292 7.37065 132.31 7.37949 132.328 7.37886L133.452 7.34319C133.499 7.34161 133.527 7.39495 133.5 7.43314L132.844 8.3595C132.833 8.37465 132.831 8.39453 132.837 8.41189L133.218 9.4847C133.234 9.52921 133.192 9.57276 133.148 9.55824L132.077 9.21232C132.059 9.20664 132.04 9.21011 132.025 9.22147L131.136 9.92026C131.1 9.9493 131.046 9.92279 131.046 9.87576L131.039 8.73541C131.039 8.71679 131.03 8.69943 131.015 8.6887L130.084 8.04798C130.046 8.02147 130.054 7.9615 130.098 7.94666L131.166 7.58811C131.183 7.58212 131.197 7.56791 131.202 7.54992L131.516 6.45534C131.529 6.40989 131.587 6.39916 131.615 6.43735Z" fill="#F3CC30"/>
<path d="M131.606 6.67883L131.32 7.61498C131.305 7.6639 131.266 7.70178 131.217 7.71535L130.284 7.97385L131.294 7.84097C131.358 7.83245 131.41 7.78289 131.421 7.71851L131.606 6.67883Z" fill="#F7DB5E"/>
<path d="M131.045 9.74443L131.046 9.87573C131.046 9.92276 131.1 9.94927 131.136 9.92024L132.025 9.22145C132.04 9.21008 132.059 9.20661 132.077 9.21229L133.148 9.55822C133.192 9.57273 133.234 9.52918 133.218 9.48468L132.837 8.41187C132.831 8.39451 132.833 8.37463 132.844 8.35948L133.5 7.43313C133.527 7.39494 133.499 7.3416 133.452 7.34317L133.076 7.35485C132.672 8.54191 131.862 9.27416 131.045 9.74443Z" fill="#EDBD31"/>
<path d="M140.228 20.9552L140.894 21.8737C140.905 21.8888 140.923 21.8976 140.941 21.897L142.065 21.861C142.112 21.8598 142.14 21.9128 142.113 21.9513L141.457 22.8777C141.446 22.8928 141.444 22.9124 141.45 22.93L141.831 24.0029C141.847 24.047 141.805 24.0906 141.761 24.0764L140.689 23.7305C140.672 23.7248 140.653 23.7283 140.638 23.7396L139.749 24.4384C139.712 24.4675 139.659 24.4409 139.659 24.3936L139.652 23.2536C139.652 23.2349 139.643 23.2176 139.627 23.2069L138.697 22.5661C138.659 22.5396 138.667 22.4797 138.711 22.4648L139.779 22.1063C139.796 22.1003 139.81 22.0861 139.815 22.0681L140.129 20.9732C140.142 20.928 140.2 20.9173 140.228 20.9552Z" fill="#F3CC30"/>
<path d="M140.219 21.1967L139.932 22.1328C139.917 22.182 139.879 22.2199 139.83 22.2335L138.897 22.4917L139.907 22.3591C139.971 22.3506 140.023 22.301 140.034 22.2366L140.219 21.1967Z" fill="#F7DB5E"/>
<path d="M139.658 24.2626L139.659 24.3936C139.659 24.4409 139.712 24.4674 139.749 24.4384L140.638 23.7396C140.653 23.7282 140.672 23.7248 140.689 23.7304L141.761 24.0764C141.805 24.0906 141.847 24.047 141.831 24.0028L141.45 22.93C141.444 22.9123 141.446 22.8928 141.457 22.8776L142.113 21.9513C142.14 21.9127 142.112 21.8597 142.065 21.861L141.689 21.873C141.284 23.06 140.475 23.7923 139.658 24.2626Z" fill="#EDBD31"/>
<path d="M42.3019 41.6412C41.2546 41.6412 40.2663 41.8994 39.3965 42.3567C39.3647 38.549 36.3104 35.4723 32.5469 35.4723C31.5805 35.4723 30.6608 35.6756 29.827 36.0417C28.1025 32.4537 24.4707 29.9811 20.2685 29.9811C14.3994 29.9811 9.64175 34.8048 9.64175 40.7546C9.64175 41.1933 9.66821 41.6251 9.71834 42.0506C8.95928 41.7293 8.12675 41.5519 7.25312 41.5519C3.71222 41.5519 0.841644 44.4623 0.841644 48.0515C0.841644 51.6411 3.71222 54.5509 7.25312 54.5509C7.41097 54.5509 7.56758 54.5452 7.72263 54.5335C7.76778 54.5446 7.81541 54.5509 7.86429 54.5509H41.6907C41.8106 54.5509 41.9221 54.5155 42.0164 54.4553C42.1111 54.4597 42.2063 54.4622 42.3019 54.4622C45.7942 54.4622 48.6256 51.5919 48.6256 48.0515C48.6256 44.5112 45.7942 41.6412 42.3019 41.6412Z" fill="white"/>
<path d="M42.3019 41.6412C41.2546 41.6412 40.2663 41.8994 39.3965 42.3567C39.3647 38.549 36.3104 35.4723 32.5469 35.4723C31.5805 35.4723 30.6608 35.6756 29.827 36.0417C28.1025 32.4537 24.4707 29.9811 20.2685 29.9811C14.3994 29.9811 9.64175 34.8048 9.64175 40.7546C9.64175 41.1933 9.66821 41.6251 9.71834 42.0506C8.95928 41.7293 8.12675 41.5519 7.25312 41.5519C3.71222 41.5519 0.841644 44.4623 0.841644 48.0515C0.841644 51.6411 3.71222 54.5509 7.25312 54.5509C7.41097 54.5509 7.56758 54.5452 7.72263 54.5335C7.76778 54.5446 7.81541 54.5509 7.86429 54.5509H8.83101C6.16374 54.0023 4.15558 51.6118 4.15558 48.7456C4.15558 45.4738 6.77179 42.8216 9.99948 42.8216C10.7956 42.8216 11.5546 42.9832 12.2464 43.2758C12.2007 42.8882 12.1764 42.494 12.1764 42.0948C12.1764 36.6717 16.5131 32.2754 21.8626 32.2754C25.6924 32.2754 29.0026 34.5289 30.5746 37.7991C31.3342 37.4655 32.1727 37.2799 33.0538 37.2799C36.4838 37.2799 39.2679 40.0842 39.2968 43.5545C40.0895 43.1382 40.9902 42.9028 41.9448 42.9028C45.128 42.9028 47.7084 45.5183 47.7084 48.7456C47.7084 51.3205 46.0651 53.5065 43.7839 54.2848C46.5614 53.6081 48.6256 51.0746 48.6256 48.0515C48.6256 44.5112 45.7942 41.6412 42.3019 41.6412Z" fill="#E6E6E6"/>
<path d="M33.9218 40.629C31.7695 39.4703 29.2675 39.5653 27.1336 40.6533C26.9586 39.055 25.1289 37.8461 22.9426 37.9225C20.6785 38.0014 18.8889 39.4296 18.9465 41.1119C18.9487 41.187 18.9549 41.2612 18.9649 41.3344L18.9562 41.4023L18.9718 41.8618C19.275 40.5819 20.7505 39.5754 22.5584 39.5123C24.1883 39.4555 25.5999 40.1827 26.1476 41.2457C25.0417 42.019 24.0824 43.0823 23.3944 44.3956C23.2375 44.6952 23.0992 44.9994 22.9787 45.3068C22.6173 44.8312 22.158 44.4285 21.6094 44.1334C19.3865 42.9359 16.5433 43.9535 15.2584 46.4055C13.9735 48.8576 14.7338 51.8157 16.9567 53.0125C17.0558 53.0658 17.156 53.1151 17.2575 53.1596C17.2821 53.1823 17.3098 53.2028 17.3403 53.2196L17.9474 53.5462C16.4692 52.2695 16.0641 49.9579 17.0903 48.0001C18.2613 45.7648 20.8529 44.8375 22.8791 45.9286C23.3788 46.1979 23.7976 46.5649 24.1273 46.9986C24.2369 46.7183 24.3626 46.4409 24.5059 46.1679C26.4471 42.4634 30.743 40.9266 34.1011 42.7348C36.5053 44.0292 37.7765 46.688 37.5931 49.4532L37.7526 48.0001C37.9543 44.9663 36.5595 42.0493 33.9218 40.629Z" fill="#E6E6E6"/>
<path d="M124.364 59.2218L124.903 58.1159C124.286 57.6734 123.375 57.413 122.515 57.413C121.206 57.413 120 58.0117 120 59.4169C119.987 61.915 123.581 61.1216 123.581 62.5397C123.581 63.0601 123.093 63.2814 122.464 63.2814C121.719 63.2814 120.77 62.956 120.179 62.4226L119.653 63.4897C120.333 64.1143 121.398 64.4523 122.4 64.4523C123.773 64.4523 125.018 63.8151 125.018 62.3967C125.031 59.8853 121.398 60.5749 121.398 59.2998C121.398 58.8055 121.822 58.6101 122.4 58.6101C123.003 58.6101 123.76 58.8443 124.364 59.2218Z" fill="white"/>
<path d="M129.562 62.813C129.164 63.0083 128.83 63.1122 128.561 63.1122C128.073 63.1122 127.803 62.7609 127.803 61.9412V58.8573H129.818V57.7384H127.803V55.8386H126.34V62.2013C126.34 63.7109 127.213 64.4656 128.291 64.4656C128.817 64.4656 129.395 64.2831 129.934 63.9581L129.562 62.813Z" fill="white"/>
<path d="M134.144 57.4261C132.026 57.4261 130.576 58.8443 130.576 60.9394C130.576 63.0212 132.026 64.4523 134.144 64.4523C136.249 64.4523 137.699 63.0212 137.699 60.9394C137.699 58.8443 136.249 57.4261 134.144 57.4261ZM134.144 58.7142C135.363 58.7142 136.223 59.6251 136.223 60.9523C136.223 62.2925 135.363 63.2034 134.144 63.2034C132.912 63.2034 132.052 62.2925 132.052 60.9523C132.052 59.6251 132.912 58.7142 134.144 58.7142Z" fill="white"/>
<path d="M140.716 58.8572V57.4779H139.24V64.4005H140.716V60.7831C140.831 59.5989 141.704 58.7792 143.078 58.8572V57.4261C141.999 57.4261 141.178 57.9204 140.716 58.8572Z" fill="white"/>
<path d="M147.3 63.2555C146.376 63.2555 145.67 62.7609 145.337 61.9542L150.304 60.4449C150.188 58.5581 148.943 57.4 147.082 57.4262C144.977 57.4521 143.655 58.9093 143.655 60.9394C143.655 63.0342 145.105 64.4523 147.21 64.4523C148.391 64.4523 149.393 63.9972 150.163 63.0472L149.303 62.2404C148.751 62.9042 148.057 63.2555 147.3 63.2555ZM147.172 58.6363C147.981 58.6363 148.558 58.9614 148.879 59.7423L145.131 60.8741V60.8612C145.131 59.4169 145.927 58.6363 147.172 58.6363Z" fill="white"/>
<defs>
<linearGradient id="paint0_linear" x1="79.2262" y1="28.6152" x2="79.2262" y2="54.506" gradientUnits="userSpaceOnUse">
<stop stop-color="#F0D83C"/>
<stop offset="1" stop-color="#D6AD32"/>
</linearGradient>
<linearGradient id="paint1_linear" x1="117.302" y1="28.5684" x2="117.302" y2="54.223" gradientUnits="userSpaceOnUse">
<stop stop-color="#F0D83C"/>
<stop offset="1" stop-color="#D6AD32"/>
</linearGradient>
<linearGradient id="paint2_linear" x1="78.251" y1="56.8615" x2="78.2517" y2="1.75253" gradientUnits="userSpaceOnUse">
<stop stop-color="#F0D83C"/>
<stop offset="1" stop-color="#D6AD32"/>
</linearGradient>
</defs>
</svg>
